<!DOCTYPE svg PUBLIC "-//W3C//DTD SVG 20010904//EN" "http://www.w3.org/TR/2001/REC-SVG-20010904/DTD/svg10.dtd">
<svg version="1.0" xmlns="http://www.w3.org/2000/svg" width="512px" height="512px" viewBox="0 0 5120 5120" preserveAspectRatio="xMidYMid meet">
<g id="layer101" fill="#1c1c1e" stroke="none">
 <path d="M1340 4533 c-19 -10 -45 -33 -57 -52 l-23 -34 0 -1876 c0 -1766 1 -1878 18 -1911 36 -72 12 -70 720 -70 664 0 742 4 948 46 289 59 496 158 663 318 216 208 322 495 308 835 -18 457 -264 820 -694 1023 l-90 43 545 740 c299 407 551 755 559 774 18 41 11 89 -19 126 -40 51 -65 55 -342 55 -311 0 -353 -9 -440 -93 -31 -30 -265 -343 -545 -729 -270 -372 -502 -686 -517 -697 -25 -19 -39 -21 -190 -21 l-163 0 -3 723 c-3 679 -4 724 -21 749 -42 62 -46 63 -347 66 -247 2 -278 1 -310 -15z m542 -890 l3 -768 250 0 c279 0 283 1 350 73 19 20 253 339 521 707 267 369 497 682 512 697 50 54 83 59 347 56 l241 -3 -547 -745 c-397 -540 -566 -762 -614 -807 -43 -41 -62 -65 -54 -68 8 -2 59 -19 114 -36 392 -124 647 -373 743 -727 24 -89 26 -112 26 -287 0 -204 -10 -264 -68 -405 -53 -132 -157 -266 -275 -353 -115 -85 -306 -165 -485 -203 -184 -39 -282 -44 -923 -44 l-623 0 0 1840 0 1840 240 0 240 0 2 -767z"/>
 <path d="M1885 2508 c-3 -7 -4 -323 -3 -703 l3 -690 340 -3 c370 -3 476 4 615 45 124 36 214 87 296 168 77 75 129 168 155 275 18 71 18 288 0 360 -20 83 -94 228 -146 288 -125 141 -329 235 -570 262 -136 15 -684 13 -690 -2z m790 -152 c248 -57 399 -177 467 -373 31 -91 33 -307 4 -393 -47 -139 -127 -219 -279 -280 -122 -49 -225 -60 -554 -60 l-293 0 0 566 0 566 293 -5 c215 -4 310 -9 362 -21z"/>
 </g>
<g id="layer102" fill="#3b55e1" stroke="none">
 <path d="M1328 4655 c-90 -25 -158 -97 -178 -188 -17 -80 -9 -3789 8 -3839 18 -51 93 -125 145 -140 61 -19 1376 -19 1497 0 132 20 346 71 440 104 303 107 549 320 676 583 99 204 148 521 113 735 -32 204 -96 385 -180 515 -129 199 -257 316 -514 470 -15 9 49 101 486 695 277 377 512 703 523 724 28 56 27 148 -3 209 -26 54 -89 112 -140 129 -23 7 -134 13 -300 15 -224 4 -276 2 -335 -13 -91 -22 -151 -52 -209 -106 -26 -24 -271 -351 -545 -728 l-497 -685 -88 -3 -87 -3 0 643 c0 691 -2 710 -52 784 -31 47 -85 82 -149 100 -72 19 -541 18 -611 -1z m618 -144 c51 -34 49 -7 54 -786 l5 -730 165 -3 c140 -3 170 -1 197 14 24 12 170 207 544 721 282 387 528 717 548 734 71 59 133 69 420 69 294 0 314 -4 340 -74 13 -33 13 -43 0 -77 -8 -22 -259 -373 -559 -781 -300 -408 -545 -745 -545 -750 0 -5 35 -24 78 -42 148 -65 295 -163 395 -265 284 -288 386 -760 255 -1176 -119 -378 -413 -611 -897 -709 -206 -42 -285 -46 -946 -46 -697 0 -687 -1 -709 60 -8 24 -11 533 -11 1902 0 2066 -5 1913 63 1944 46 20 572 16 603 -5z"/>
 <path d="M2005 2389 c-3 -8 -4 -270 -3 -584 l3 -570 295 -3 c228 -2 317 1 394 13 247 39 408 156 472 345 29 85 27 302 -4 391 -70 204 -235 337 -487 395 -98 23 -662 33 -670 13z m572 -140 c151 -17 291 -77 364 -157 22 -24 55 -73 72 -110 31 -65 32 -71 32 -202 0 -127 -2 -138 -28 -192 -47 -95 -128 -153 -272 -194 -48 -14 -116 -18 -332 -21 l-273 -5 0 446 0 446 170 0 c94 0 214 -5 267 -11z"/>
 </g>
<g id="layer103" fill="#ffffff" stroke="none">
 <path d="M0 2560 l0 -2560 2560 0 2560 0 0 2560 0 2560 -2560 0 -2560 0 0 -2560z m1965 2071 c51 -17 119 -85 136 -136 10 -31 15 -189 19 -710 l5 -670 89 -3 c74 -2 92 0 108 15 11 10 245 327 519 705 288 395 515 699 537 716 109 86 185 102 497 102 273 0 329 -8 390 -54 74 -56 103 -195 59 -282 -11 -21 -246 -346 -522 -722 -276 -376 -502 -687 -502 -691 0 -5 35 -29 78 -53 105 -62 236 -160 298 -224 108 -113 223 -299 269 -439 63 -189 90 -439 65 -606 -55 -382 -207 -640 -482 -822 -156 -103 -282 -154 -508 -205 -251 -57 -250 -57 -990 -57 -517 0 -695 3 -726 12 -52 16 -111 75 -127 127 -9 32 -12 457 -12 1941 l0 1900 24 48 c28 57 73 94 138 112 65 19 579 15 638 -4z"/>
 <path d="M1385 4418 c-3 -7 -4 -843 -3 -1858 l3 -1845 615 -3 c636 -3 744 1 925 38 194 40 386 118 506 207 74 55 197 187 238 256 41 71 76 155 103 255 18 66 22 104 22 267 0 175 -2 198 -26 287 -96 354 -367 622 -753 744 -49 15 -92 30 -94 31 -3 2 25 34 61 71 76 78 1151 1539 1143 1553 -4 5 -113 9 -258 9 -284 0 -301 -4 -368 -76 -20 -22 -251 -336 -513 -699 -263 -363 -497 -679 -521 -702 -24 -23 -59 -46 -81 -52 -23 -6 -133 -11 -261 -11 l-223 0 -2 768 -3 767 -253 3 c-197 2 -254 0 -257 -10z m1190 -1928 c243 -28 459 -128 567 -263 48 -60 110 -188 129 -267 18 -72 18 -288 0 -360 -51 -208 -193 -351 -416 -420 -136 -41 -238 -50 -607 -50 l-348 0 0 685 0 685 293 0 c160 0 333 -5 382 -10z"/>
 <path d="M2125 2268 c-3 -7 -4 -215 -3 -463 l3 -450 275 0 c232 0 285 3 340 18 148 40 246 112 297 216 26 53 28 64 28 191 0 131 -1 137 -32 203 -77 161 -237 262 -456 286 -139 16 -446 15 -452 -1z"/>
 </g>

</svg>